<mxfile host="app.diagrams.net" modified="2023-11-20T16:15:12.361Z" agent="Mozilla/5.0 (Windows NT 10.0; Win64; x64) AppleWebKit/537.36 (KHTML, like Gecko) Chrome/119.0.0.0 Safari/537.36" version="22.1.3" etag="AlsAY3ryLSP_sSLnUaD4" type="github">
  <diagram name="Pagina-1" id="h6OpWx-HHG8oMTi5hLj7">
    <mxGraphModel>
      <root>
        <mxCell id="0" />
        <mxCell id="1" parent="0" />
      </root>
    </mxGraphModel>
  </diagram>
</mxfile>
